<!-- filepath: c:\bernardo\FreeLance\HackathonTEC\FinancIA\frontend\public\favicon.svg -->
<svg xmlns="http://www.w3.org/2000/svg" viewBox="0 0 277 288">
<g transform="translate(0,288) scale(0.1,-0.1)" fill="#ffffff">
<path d="M853 2265 c-89 -38 -100 -200 -20 -273 l25 -24 -38 -59 c-39 -61 -84
-175 -74 -190 3 -5 1 -9 -4 -9 -24 0 -72 -254 -79 -423 -6 -135 -6 -138 18
-163 62 -67 280 -188 419 -232 270 -86 578 -94 828 -20 48 14 78 29 87 42 18
29 27 172 12 184 -7 6 -39 11 -72 13 -33 2 -66 10 -73 17 -7 6 -21 12 -30 12
-26 0 -133 90 -130 109 5 27 35 24 83 -9 24 -17 64 -38 87 -47 52 -18 197 -21
208 -3 4 7 10 69 14 138 4 70 9 153 13 184 5 57 5 58 -32 93 -21 19 -67 47
-102 62 -35 15 -62 32 -60 38 2 5 25 10 50 9 35 0 58 -9 103 -38 50 -34 60
-37 77 -26 11 7 41 24 66 37 69 38 73 43 67 77 -8 37 -48 123 -72 155 -74 95
-120 132 -233 190 -138 70 -308 130 -379 133 -29 2 -52 6 -52 11 0 19 -382 -2
-400 -22 -3 -3 -16 -6 -30 -6 -22 0 -25 -4 -24 -32 3 -46 -16 -42 -54 13 -49
69 -125 92 -199 59z m557 -560 c34 -17 60 -62 60 -100 0 -17 -14 -40 -37 -64
-33 -35 -39 -38 -72 -30 -78 17 -115 105 -70 163 36 45 73 55 119 31z"/>
<path d="M2240 1639 c-24 -16 -48 -35 -52 -43 -4 -8 -12 -72 -18 -143 -5 -70
-12 -152 -14 -180 -4 -45 -2 -53 13 -53 51 0 102 53 126 132 16 54 30 244 20
287 -8 38 -17 38 -75 0z"/>
<path d="M2020 229 c-153 -38 -315 -49 -717 -49 -352 0 -449 -7 -341 -24 32
-5 39 -9 29 -19 -8 -8 -14 -8 -19 -2 -4 6 -22 11 -41 12 -19 1 -32 0 -29 -2
11 -11 124 -36 145 -32 12 2 24 0 25 -4 6 -17 246 -32 438 -26 153 5 221 11
318 31 198 41 312 80 312 108 0 5 -7 2 -16 -6 -8 -9 -21 -16 -27 -15 -8 0 -8
2 1 6 7 2 17 13 22 24 13 24 3 24 -100 -2z"/>
</g>
</svg>